HIERARCHY
ROOT hip
{
	OFFSET 0.000000 0.000000 0.000000
	CHANNELS 6 Xposition Yposition Zposition Xrotation Zrotation Yrotation 
	JOINT abdomen
	{
		OFFSET 0.000000 3.422050 0.000000
		CHANNELS 3 Xrotation Zrotation Yrotation 
		JOINT chest
		{
			OFFSET 0.000000 8.486693 -0.684411
			CHANNELS 3 Xrotation Zrotation Yrotation 
			JOINT neck
			{
				OFFSET 0.000000 10.266162 -0.273764
				CHANNELS 3 Xrotation Zrotation Yrotation 
				JOINT head
				{
					OFFSET 0.000000 3.148285 0.000000
					CHANNELS 3 Xrotation Zrotation Yrotation 
					End Site
					{
						OFFSET 0.000000 3.148289 0.000000
					}
				}
			}
			JOINT lCollar
			{
				OFFSET 3.422053 6.707223 -0.821293
				CHANNELS 3 Yrotation Zrotation Xrotation 
				JOINT lShldr
				{
					OFFSET 3.285171 0.000000 0.000000
					CHANNELS 3 Zrotation Yrotation Xrotation 
					JOINT lForeArm
					{
						OFFSET 10.129278 0.000000 0.000000
						CHANNELS 3 Yrotation Zrotation Xrotation 
						JOINT lHand
						{
							OFFSET 8.486692 0.000000 0.000000
							CHANNELS 3 Zrotation Yrotation Xrotation 
							End Site
							{
								OFFSET 4.106464 0.000000 0.000000
							}
						}
					}
				}
			}
			JOINT rCollar
			{
				OFFSET -3.558935 6.707223 -0.821293
				CHANNELS 3 Yrotation Zrotation Xrotation 
				JOINT rShldr
				{
					OFFSET -3.148289 0.000000 0.000000
					CHANNELS 3 Zrotation Yrotation Xrotation 
					JOINT rForeArm
					{
						OFFSET -10.266159 0.000000 0.000000
						CHANNELS 3 Yrotation Zrotation Xrotation 
						JOINT rHand
						{
							OFFSET -8.349810 0.000000 0.000000
							CHANNELS 3 Zrotation Yrotation Xrotation 
							End Site
							{
								OFFSET -4.106464 0.000000 0.000000
							}
						}
					}
				}
			}
		}
	}
	JOINT lThigh
	{
		OFFSET 5.338403 -1.642589 1.368821
		CHANNELS 3 Xrotation Zrotation Yrotation 
		JOINT lShin
		{
			OFFSET -2.053232 -20.121670 0.000000
			CHANNELS 3 Xrotation Zrotation Yrotation 
			JOINT lFoot
			{
				OFFSET 0.000000 -19.300380 -1.231939
				CHANNELS 3 Xrotation Yrotation Zrotation 
				End Site
				{
					OFFSET 0.000000 -2.463878 4.653993
				}
			}
		}
	}
	JOINT rThigh
	{
		OFFSET -5.338403 -1.642589 1.368821
		CHANNELS 3 Xrotation Zrotation Yrotation 
		JOINT rShin
		{
			OFFSET 2.053232 -20.121670 0.000000
			CHANNELS 3 Xrotation Zrotation Yrotation 
			JOINT rFoot
			{
				OFFSET 0.000000 -19.300380 -1.231939
				CHANNELS 3 Xrotation Yrotation Zrotation 
				End Site
				{
					OFFSET 0.000000 -2.463878 4.653993
				}
			}
		}
	}
}
MOTION
Frames: 13
Frame Time: 0.033264
0.000000 43.528500 0.000000 0.000000 0.000000 0.000000 0.000000 0.000000 0.000000 0.000000 0.000000 0.000000 0.000000 0.000000 0.000000 0.000000 0.000000 0.000000 0.000000 0.000000 0.000000 0.000000 0.000000 0.000000 0.000000 0.000000 0.000000 0.000000 0.000000 0.000000 0.000000 0.000000 0.000000 0.000000 0.000000 0.000000 0.000000 0.000000 0.000000 0.000000 0.000000 0.000000 0.000000 0.000000 0.000000 0.000000 0.000000 0.000000 0.000000 0.000000 0.000000 0.000000 0.000000 0.000000 0.000000 0.000000 0.000000 0.000000 0.000000 0.000000 
12.762878 5.930695 2.472076 -85.999916 -3.004981 -114.991058 -0.528186 -14.824895 -0.588995 -0.758357 -21.027498 18.806194 -1.995263 -0.722203 0.003832 -27.083090 -9.712174 2.252386 -14.320828 -22.679255 -3.606851 -15.483850 -21.332870 3.366157 -36.749409 -29.374929 -4.083828 -7.000641 -0.001453 -23.003128 14.104067 1.030199 -0.830473 13.497337 48.333828 -2.669237 45.699524 -10.855210 -5.702971 1.517951 -4.747394 -2.035508 1.944856 26.254892 40.502201 62.548489 -49.663269 7.867226 13.611595 2.328721 5.489282 9.755045 -9.184243 -0.727312 53.873260 -9.080612 -1.737025 14.680790 -1.731548 -5.013693 
12.762878 5.930695 2.472076 -85.999916 -3.004981 -114.991058 -0.528186 -14.824895 -0.588995 -0.758357 -21.027498 18.806194 -1.380325 -0.816465 0.441868 -27.083090 -9.712174 2.252386 -14.320829 -22.679255 -3.606851 -15.408760 -21.036594 2.851300 -36.749409 -29.374929 -4.083828 -7.438240 -0.418355 -23.078680 14.104067 1.030199 -0.830473 13.497337 48.333828 -2.669237 45.699524 -10.855210 -5.702971 1.517951 -4.747394 -2.035508 1.944856 26.254892 40.502201 62.548489 -49.663269 7.867226 13.611595 2.328721 5.489282 9.755045 -9.184243 -0.727312 53.873260 -9.080612 -1.737025 14.680790 -1.731548 -5.013693 
12.762878 5.930695 2.472076 -85.999916 -3.004981 -114.991058 -0.528186 -14.824895 -0.588995 -0.758356 -21.027498 18.806194 -0.764226 -0.915730 0.880217 -27.083092 -9.712174 2.252386 -14.320828 -22.679255 -3.606851 -15.336594 -20.739368 2.337287 -36.749413 -29.374929 -4.083828 -7.875893 -0.836363 -23.151146 14.104067 1.030199 -0.830473 13.497337 48.333828 -2.669237 45.699528 -10.855211 -5.702971 1.517951 -4.747394 -2.035508 1.944856 26.254892 40.502201 62.548489 -49.663269 7.867226 13.611596 2.328721 5.489283 9.755045 -9.184243 -0.727312 53.873268 -9.080613 -1.737025 14.680792 -1.731548 -5.013693 
12.762878 5.930695 2.472076 -85.999916 -3.004981 -114.991058 -0.528186 -14.824897 -0.588995 -0.758357 -21.027498 18.806194 -0.147054 -1.020016 1.318788 -27.083092 -9.712174 2.252386 -14.320830 -22.679256 -3.606851 -15.267336 -20.441210 1.824112 -36.749409 -29.374929 -4.083828 -8.313612 -1.255429 -23.220510 14.104067 1.030199 -0.830473 13.497339 48.333828 -2.669237 45.699528 -10.855210 -5.702970 1.517951 -4.747394 -2.035508 1.944856 26.254892 40.502201 62.548496 -49.663269 7.867225 13.611595 2.328721 5.489282 9.755045 -9.184243 -0.727312 53.873260 -9.080612 -1.737025 14.680792 -1.731548 -5.013694 
12.762878 5.930695 2.472076 -85.999916 -3.004986 -114.991074 -0.528186 -14.824897 -0.588995 -0.758356 -21.027498 18.806196 0.471108 -1.129339 1.757491 -27.083092 -9.712174 2.252386 -14.320829 -22.679256 -3.606851 -15.200993 -20.142178 1.311772 -36.749409 -29.374929 -4.083828 -8.751423 -1.675509 -23.286758 14.104068 1.030199 -0.830473 13.497339 48.333836 -2.669238 45.699524 -10.855210 -5.702971 1.517951 -4.747395 -2.035508 1.944857 26.254894 40.502205 62.548496 -49.663269 7.867225 13.611595 2.328721 5.489282 9.755045 -9.184243 -0.727312 53.873260 -9.080612 -1.737025 14.680792 -1.731548 -5.013694 
12.762878 5.930695 2.472076 -85.999916 -3.004981 -114.991058 -0.528186 -14.824895 -0.588995 -0.758357 -21.027500 18.806196 1.090171 -1.243712 2.196233 -27.083094 -9.712174 2.252386 -14.320830 -22.679256 -3.606851 -15.137557 -19.842299 0.800263 -36.749413 -29.374929 -4.083828 -9.189347 -2.096557 -23.349880 14.104068 1.030199 -0.830473 13.497339 48.333832 -2.669238 45.699528 -10.855211 -5.702971 1.517951 -4.747395 -2.035508 1.944855 26.254894 40.502201 62.548489 -49.663277 7.867234 13.611595 2.328721 5.489282 9.755045 -9.184244 -0.727312 53.873260 -9.080612 -1.737025 14.680790 -1.731548 -5.013694 
12.762878 5.930695 2.472076 -85.999916 -3.004980 -114.991058 -0.528186 -14.824895 -0.588995 -0.758356 -21.027498 18.806192 1.710050 -1.363144 2.634922 -27.083088 -9.712174 2.252386 -14.320827 -22.679255 -3.606851 -15.077033 -19.541618 0.289582 -36.749413 -29.374929 -4.083828 -9.627399 -2.518523 -23.409851 14.104066 1.030199 -0.830473 13.497335 48.333820 -2.669238 45.699520 -10.855209 -5.702970 1.517951 -4.747394 -2.035508 1.944856 26.254889 40.502201 62.548481 -49.663261 7.867230 13.611595 2.328721 5.489282 9.755044 -9.184243 -0.727312 53.873260 -9.080611 -1.737024 14.680790 -1.731548 -5.013693 
12.762878 5.930695 2.472076 -85.999916 -3.004981 -114.991058 -0.528186 -14.824895 -0.588995 -0.758357 -21.027498 18.806192 2.330657 -1.487644 3.073467 -27.083086 -9.712173 2.252386 -14.320827 -22.679253 -3.606851 -15.019405 -19.240168 -0.220278 -36.749409 -29.374926 -4.083828 -10.065610 -2.941364 -23.466673 14.104066 1.030199 -0.830473 13.497337 48.333828 -2.669237 45.699520 -10.855209 -5.702970 1.517951 -4.747394 -2.035508 1.944856 26.254890 40.502201 62.548481 -49.663265 7.867228 13.611595 2.328721 5.489282 9.755045 -9.184242 -0.727312 53.873257 -9.080611 -1.737024 14.680790 -1.731548 -5.013693 
12.762878 5.930695 2.472076 -85.999916 -3.004979 -114.991058 -0.528186 -14.824895 -0.588995 -0.758357 -21.027498 18.806194 2.951905 -1.617217 3.511772 -27.083088 -9.712173 2.252386 -14.320827 -22.679253 -3.606851 -14.964677 -18.937988 -0.729318 -36.749409 -29.374929 -4.083828 -10.503995 -3.365031 -23.520327 14.104066 1.030199 -0.830473 13.497337 48.333828 -2.669237 45.699524 -10.855210 -5.702971 1.517951 -4.747394 -2.035508 1.944855 26.254892 40.502197 62.548489 -49.663269 7.867226 13.611595 2.328721 5.489282 9.755044 -9.184243 -0.727312 53.873257 -9.080612 -1.737024 14.680790 -1.731548 -5.013693 
12.762878 5.930695 2.472076 -85.999916 -3.004981 -114.991058 -0.528186 -14.824895 -0.588995 -0.758357 -21.027498 18.806194 3.573705 -1.751864 3.949746 -27.083090 -9.712174 2.252386 -14.320828 -22.679253 -3.606851 -14.912846 -18.635128 -1.237545 -36.749409 -29.374929 -4.083828 -10.942576 -3.789475 -23.570795 14.104067 1.030199 -0.830473 13.497337 48.333828 -2.669237 45.699524 -10.855210 -5.702970 1.517951 -4.747394 -2.035508 1.944855 26.254890 40.502201 62.548489 -49.663269 7.867226 13.611595 2.328721 5.489282 9.755045 -9.184243 -0.727312 53.873260 -9.080612 -1.737025 14.680790 -1.731548 -5.013693 
12.762878 5.930695 2.472076 -85.999916 -3.004981 -114.991058 -0.528186 -14.824895 -0.588995 -0.758357 -21.027498 18.806194 4.195968 -1.891585 4.387294 -27.083090 -9.712174 2.252386 -14.320828 -22.679255 -3.606851 -14.863899 -18.331615 -1.744964 -36.749409 -29.374929 -4.083828 -11.381382 -4.214650 -23.618074 14.104067 1.030199 -0.830473 13.497337 48.333828 -2.669237 45.699524 -10.855210 -5.702970 1.517951 -4.747394 -2.035508 1.944856 26.254890 40.502201 62.548489 -49.663269 7.867226 13.611595 2.328721 5.489282 9.755045 -9.184243 -0.727312 53.873260 -9.080612 -1.737025 14.680790 -1.731548 -5.013693 
12.762878 5.930695 2.472076 -85.999916 -3.004981 -114.991058 -0.528186 -14.824895 -0.588995 -0.758357 -21.027498 18.806194 4.818610 -2.036377 4.824325 -27.083090 -9.712174 2.252386 -14.320828 -22.679255 -3.606851 -14.817840 -18.027493 -2.251579 -36.749409 -29.374929 -4.083828 -11.820429 -4.640507 -23.662140 14.104067 1.030199 -0.830473 13.497337 48.333828 -2.669237 45.699524 -10.855210 -5.702971 1.517951 -4.747394 -2.035508 1.944856 26.254892 40.502201 62.548489 -49.663269 7.867226 13.611595 2.328721 5.489282 9.755045 -9.184243 -0.727312 53.873260 -9.080612 -1.737025 14.680790 -1.731548 -5.013693 
